<?xml version="1.0" encoding="utf-8"?>
<svg viewBox="168.325 126.137 175.982 152.556" xmlns="http://www.w3.org/2000/svg">
  <g transform="matrix(0.1, 0, 0, -0.1, -61.767629, 144.423861)" fill="#000000" stroke="none">
    <g transform="matrix(1, 0, 0, 1, 1145.187134, 0)">
      <path d="M 1925.791 151.589 C 1893.791 109.589 1869.791 42.589 1869.791 -4.411 C 1870.791 -72.411 1890.791 -131.411 1979.791 -315.411 C 2028.791 -417.411 2073.791 -521.411 2080.791 -547.411 C 2097.791 -616.411 2088.791 -731.411 2062.791 -783.411 L 2041.791 -826.411 L 2063.791 -819.411 C 2144.791 -795.411 2246.791 -703.411 2296.791 -609.411 C 2345.791 -517.411 2362.791 -443.411 2363.791 -330.411 C 2364.791 -81.411 2233.791 117.589 2033.791 169.589 C 1955.791 189.589 1954.791 189.589 1925.791 151.589 Z" style="fill: rgb(107, 68, 35);"/>
      <path d="M 1789.791 142.589 C 1689.791 93.589 1594.791 -31.411 1553.791 -171.411 C 1532.791 -243.411 1529.791 -387.411 1548.791 -465.411 C 1594.791 -659.411 1746.791 -816.411 1901.791 -832.411 C 1955.791 -837.411 1955.791 -837.411 1980.791 -799.411 C 2058.791 -681.411 2048.791 -598.411 1928.791 -354.411 C 1884.791 -264.411 1839.791 -165.411 1828.791 -133.411 C 1803.791 -57.411 1803.791 38.589 1829.791 106.589 C 1840.791 135.589 1849.791 160.589 1849.791 162.589 C 1849.791 168.589 1830.791 162.589 1789.791 142.589 Z" style="fill: rgb(107, 68, 35);"/>
      <path d="M 2299.791 70.589 C 2299.791 67.589 2312.791 45.589 2329.791 21.589 C 2467.791 -183.411 2459.791 -509.411 2312.791 -702.411 C 2259.791 -771.411 2295.791 -751.411 2384.791 -663.411 C 2538.791 -508.411 2593.791 -326.411 2539.791 -152.411 C 2516.791 -78.411 2453.791 -0.411 2385.791 38.589 C 2342.791 63.589 2299.791 79.589 2299.791 70.589 Z" style="fill: rgb(107, 68, 35);"/>
    </g>
    <g transform="matrix(1, 0, 0, 1, 1145.187134, 0)">
      <path d="M 1743.742 -1007.685 C 1739.742 -1011.685 1736.742 -1083.685 1736.742 -1168.685 C 1736.742 -1345.685 1730.742 -1336.685 1838.742 -1336.685 C 1898.742 -1336.685 1908.742 -1333.685 1933.742 -1308.685 C 1957.742 -1285.685 1961.742 -1272.685 1960.742 -1230.685 C 1960.742 -1188.685 1955.742 -1175.685 1928.742 -1148.685 C 1903.742 -1123.685 1888.742 -1116.685 1856.742 -1116.685 L 1817.742 -1116.685 L 1814.742 -1061.685 C 1811.742 -1008.685 1810.742 -1006.685 1781.742 -1003.685 C 1764.742 -1001.685 1747.742 -1003.685 1743.742 -1007.685 Z M 1874.742 -1193.685 C 1881.742 -1200.685 1886.742 -1217.685 1886.742 -1231.685 C 1886.742 -1263.685 1869.742 -1281.685 1839.742 -1281.685 C 1818.742 -1281.685 1816.742 -1277.685 1816.742 -1231.685 C 1816.742 -1185.685 1818.742 -1181.685 1839.742 -1181.685 C 1852.742 -1181.685 1867.742 -1186.685 1874.742 -1193.685 Z" style="fill: rgb(107, 68, 35);"/>
      <path d="M 2438.742 -1009.685 L 2406.742 -1012.685 L 2408.742 -1174.685 L 2411.742 -1336.685 L 2446.742 -1336.685 L 2481.742 -1336.685 L 2486.742 -1262.685 C 2490.742 -1208.685 2495.742 -1185.685 2508.742 -1178.685 C 2539.742 -1158.685 2556.742 -1186.685 2556.742 -1257.685 C 2556.742 -1309.685 2559.742 -1322.685 2575.742 -1331.685 C 2621.742 -1355.685 2675.742 -1331.685 2648.742 -1298.685 C 2643.742 -1292.685 2636.742 -1257.685 2634.742 -1222.685 C 2630.742 -1167.685 2626.742 -1155.685 2601.742 -1133.685 C 2577.742 -1113.685 2566.742 -1110.685 2529.742 -1115.685 L 2486.742 -1121.685 L 2486.742 -1066.685 C 2486.742 -1037.685 2483.742 -1011.685 2479.742 -1009.685 C 2474.742 -1007.685 2456.742 -1007.685 2438.742 -1009.685 Z" style="fill: rgb(107, 68, 35);"/>
      <path d="M 1356.742 -1024.685 C 1340.742 -1032.685 1326.742 -1052.685 1317.742 -1081.685 C 1301.742 -1131.685 1292.742 -1141.685 1259.742 -1141.685 C 1238.742 -1141.685 1236.742 -1021.685 1236.742 -1021.685 L 1196.742 -1021.685 L 1155.742 -1021.685 L 1158.742 -1178.685 L 1161.742 -1336.685 L 1198.742 -1339.685 L 1235.742 -1342.685 L 1238.742 -1279.685 C 1241.742 -1225.685 1244.742 -1216.685 1261.742 -1213.685 C 1276.742 -1211.685 1289.742 -1225.685 1316.742 -1273.685 C 1351.742 -1335.685 1352.742 -1336.685 1399.742 -1339.685 C 1425.742 -1341.685 1446.742 -1339.685 1446.742 -1335.685 C 1446.742 -1332.685 1426.742 -1296.685 1401.742 -1256.685 L 1356.742 -1184.685 L 1381.742 -1127.685 C 1395.742 -1095.685 1412.742 -1071.685 1421.742 -1071.685 C 1441.742 -1071.685 1441.742 -1025.685 1420.742 -1017.685 C 1397.742 -1008.685 1384.742 -1010.685 1356.742 -1024.685 Z" style="fill: rgb(107, 68, 35);"/>
      <path d="M 2016.742 -1026.685 C 2000.742 -1046.685 2011.742 -1087.685 2034.742 -1093.685 C 2064.742 -1101.685 2086.742 -1083.685 2086.742 -1052.685 C 2086.742 -1012.685 2041.742 -996.685 2016.742 -1026.685 Z" style="fill: rgb(107, 68, 35);"/>
      <path d="M 1536.742 -1118.685 C 1528.742 -1121.685 1509.742 -1135.685 1494.742 -1149.685 C 1420.742 -1218.685 1472.742 -1341.685 1576.742 -1341.685 C 1649.742 -1341.685 1705.742 -1276.685 1692.742 -1206.685 C 1680.742 -1144.685 1593.742 -1095.685 1536.742 -1118.685 Z M 1605.742 -1195.685 C 1612.742 -1203.685 1616.742 -1222.685 1614.742 -1238.685 C 1611.742 -1263.685 1606.656 -1267.228 1576.742 -1274.833 C 1544.112 -1267.227 1541.742 -1263.685 1538.742 -1238.685 C 1532.742 -1189.685 1577.742 -1161.685 1605.742 -1195.685 Z" style="fill: rgb(107, 68, 35);"/>
      <path d="M 2200.742 -1125.685 C 2158.742 -1143.685 2136.742 -1177.685 2136.742 -1223.685 C 2136.742 -1276.685 2154.742 -1308.685 2194.742 -1327.685 C 2257.742 -1357.685 2344.742 -1327.685 2359.742 -1270.685 C 2363.742 -1254.685 2359.742 -1251.685 2329.742 -1251.685 C 2310.742 -1251.685 2288.742 -1258.685 2280.742 -1266.685 C 2259.742 -1286.685 2243.742 -1285.685 2221.742 -1261.685 C 2206.742 -1245.685 2204.742 -1235.685 2212.742 -1213.685 C 2222.742 -1184.685 2260.742 -1171.685 2279.742 -1190.685 C 2285.742 -1196.685 2307.742 -1201.685 2328.742 -1201.685 L 2367.742 -1201.685 L 2351.742 -1170.685 C 2335.742 -1140.685 2284.742 -1111.685 2249.742 -1111.685 C 2239.742 -1112.685 2217.742 -1118.685 2200.742 -1125.685 Z" style="fill: rgb(107, 68, 35);"/>
      <path d="M 2741.742 -1118.685 C 2699.742 -1127.685 2696.742 -1130.685 2705.742 -1152.685 C 2711.742 -1171.685 2721.742 -1174.685 2762.742 -1175.685 C 2797.742 -1176.685 2811.742 -1180.685 2814.742 -1191.685 C 2816.742 -1203.685 2808.742 -1205.685 2772.742 -1203.685 C 2719.742 -1198.685 2686.742 -1224.685 2686.742 -1271.685 C 2686.742 -1331.685 2760.742 -1363.685 2813.742 -1326.685 C 2832.742 -1313.685 2835.742 -1313.685 2840.742 -1326.685 C 2848.742 -1347.685 2905.742 -1346.685 2913.742 -1324.685 C 2917.742 -1315.685 2914.742 -1305.685 2908.742 -1303.685 C 2901.742 -1301.685 2896.742 -1278.685 2896.742 -1246.685 C 2896.742 -1216.685 2892.742 -1181.685 2886.742 -1166.685 C 2871.742 -1125.685 2805.742 -1104.685 2741.742 -1118.685 Z M 2814.742 -1263.685 C 2807.742 -1283.685 2756.742 -1286.685 2756.742 -1267.685 C 2756.742 -1256.685 2766.742 -1251.685 2787.742 -1251.685 C 2807.742 -1251.685 2816.742 -1255.685 2814.742 -1263.685 Z" style="fill: rgb(107, 68, 35);"/>
      <path d="M 2008.742 -1228.685 L 2011.742 -1336.685 L 2049.742 -1339.685 L 2086.742 -1342.685 L 2086.742 -1232.685 L 2086.742 -1121.685 L 2046.742 -1121.685 L 2005.742 -1121.685 L 2008.742 -1228.685 Z" style="fill: rgb(107, 68, 35);"/>
    </g>
  </g>
</svg>