<?xml version="1.0" encoding="utf-8"?>
<svg viewBox="556.33 166.587 102.387 101.759" xmlns="http://www.w3.org/2000/svg">
  <path d="M 5461.278 -1034.169 C 5429.278 -1076.169 5405.278 -1143.169 5405.278 -1190.169 C 5406.278 -1258.169 5426.278 -1317.169 5515.278 -1501.169 C 5564.278 -1603.169 5609.278 -1707.169 5616.278 -1733.169 C 5633.278 -1802.169 5624.278 -1917.169 5598.278 -1969.169 L 5577.278 -2012.169 L 5599.278 -2005.169 C 5680.278 -1981.169 5782.278 -1889.169 5832.278 -1795.169 C 5881.278 -1703.169 5898.278 -1629.169 5899.278 -1516.169 C 5900.278 -1267.169 5769.278 -1068.169 5569.278 -1016.169 C 5491.278 -996.169 5490.278 -996.169 5461.278 -1034.169 Z" style="fill: rgb(107, 68, 35);" transform="matrix(0.1, 0, 0, -0.1, 49.167336, 66.298173)"/>
  <path d="M 5325.278 -1043.169 C 5225.278 -1092.169 5130.278 -1217.169 5089.278 -1357.169 C 5068.278 -1429.169 5065.278 -1573.169 5084.278 -1651.169 C 5130.278 -1845.169 5282.278 -2002.169 5437.278 -2018.169 C 5491.278 -2023.169 5491.278 -2023.169 5516.278 -1985.169 C 5594.278 -1867.169 5584.278 -1784.169 5464.278 -1540.169 C 5420.278 -1450.169 5375.278 -1351.169 5364.278 -1319.169 C 5339.278 -1243.169 5339.278 -1147.169 5365.278 -1079.169 C 5376.278 -1050.169 5385.278 -1025.169 5385.278 -1023.169 C 5385.278 -1017.169 5366.278 -1023.169 5325.278 -1043.169 Z" style="fill: rgb(107, 68, 35);" transform="matrix(0.1, 0, 0, -0.1, 49.167336, 66.298173)"/>
  <path d="M 5835.278 -1115.169 C 5835.278 -1118.169 5848.278 -1140.169 5865.278 -1164.169 C 6003.278 -1369.169 5995.278 -1695.169 5848.278 -1888.169 C 5795.278 -1957.169 5831.278 -1937.169 5920.278 -1849.169 C 6074.278 -1694.169 6129.278 -1512.169 6075.278 -1338.169 C 6052.278 -1264.169 5989.278 -1186.169 5921.278 -1147.169 C 5878.278 -1122.169 5835.278 -1106.169 5835.278 -1115.169 Z" style="fill: rgb(107, 68, 35);" transform="matrix(0.1, 0, 0, -0.1, 49.167336, 66.298173)"/>
</svg>